<svg xmlns="http://www.w3.org/2000/svg" width="31" height="31"><g fill="none" fill-rule="evenodd" style="&#10;    background-color: darkblue;&#10;"><path d="M21.02 16.34c2.903 0 5.255 2.34 5.255 5.225v4.15c0 2.885-2.352 5.224-5.255 5.224h-7.728a5.255 5.255 0 0 1-4.995-3.597l-4.604 2.294a2.557 2.557 0 0 1-3.423-1.13A2.523 2.523 0 0 1 0 27.37v-7.442c0-1.4 1.142-2.535 2.55-2.535.4 0 .795.093 1.152.273l4.584 2.307a5.254 5.254 0 0 1 5.006-3.632h7.728zm-.033 2.69H13.37a2.62 2.62 0 0 0-2.628 2.569v4.038a2.62 2.62 0 0 0 2.584 2.612h7.617a2.62 2.62 0 0 0 2.627-2.568v-4.039a2.62 2.62 0 0 0-2.583-2.612zM3.4 20.65a.694.694 0 0 0-.695.679v4.678a.697.697 0 0 0 1 .622l.011-.006 4.321-2.191v-1.55l-4.325-2.158a.699.699 0 0 0-.312-.074zM9.815.975A7.114 7.114 0 0 1 16.02 4.59a6.1 6.1 0 0 1 4.15-1.619c3.372 0 6.105 2.718 6.105 6.07 0 3.352-2.733 6.07-6.105 6.07a6.108 6.108 0 0 1-4.934-2.495 7.112 7.112 0 0 1-5.421 2.495c-3.927 0-7.11-3.165-7.11-7.069S5.888.975 9.815.975zm0 2.842c-2.348 0-4.25 1.892-4.25 4.226s1.902 4.226 4.25 4.226c2.347 0 4.25-1.892 4.25-4.226s-1.903-4.226-4.25-4.226zM20.17 5.815a3.236 3.236 0 0 0-3.245 3.227 3.236 3.236 0 0 0 3.245 3.227 3.236 3.236 0 0 0 3.246-3.227 3.236 3.236 0 0 0-3.246-3.227z" fill="#FF3D13"/></g></svg>