<svg t="1721899432229" class="icon" viewBox="0 0 1024 1024" version="1.1" xmlns="http://www.w3.org/2000/svg" p-id="4321" width="32" height="32"><path d="M143.392 131.744c81.824-24.576 180.032 70.464 336.064 325.248 17.536 28.608 32.544 52 33.376 52.032 0.832 0 16.64-24.768 35.072-55.04 155.168-254.56 253.44-348.096 336.896-320.704 53.024 17.408 75.392 68.608 75.2 172.16-0.384 201.44-97.216 517.12-176.256 574.592-65.088 47.296-162.336-12.256-252.992-154.976-8.992-14.208-17.216-25.856-18.208-25.888-0.992 0-8.992 11.552-17.76 25.728-47.776 77.248-106.368 137.12-156.608 160.032-24.416 11.136-66.88 12.672-84.8 3.04-48.832-26.24-103.808-140.16-146.4-303.488C38.912 323.52 52.16 159.2 143.392 131.744zM827.296 235.52c-51.808 40.256-118.592 129.92-216.384 290.56l-46.176 75.776 15.808 28.288c39.712 71.2 85.6 131.072 122.624 160 25.088 19.648 33.376 15.52 55.296-27.648 68.928-135.52 127.68-413.184 108.48-512.992-5.76-30.048-14.816-33.248-39.648-13.984zM166.752 226.976c-18.496 18.272-13.696 136.704 10.304 254.912 28.96 142.72 89.92 308.736 116.736 318.048 26.08 9.056 97.792-72.96 154.112-176.256l12.32-22.624-39.52-64.864c-105.92-173.76-174.976-266.592-225.792-303.488-15.616-11.328-21.312-12.48-28.16-5.728z" fill="#FF9908" p-id="4322"></path></svg>